<svg width="150" height="150" viewBox="0 0 150 150" fill="none" xmlns="http://www.w3.org/2000/svg">
<rect width="150" height="150" rx="75" fill="#FFE1BD"/>
<path d="M73.9 112.6C66.5 112.6 59.8333 111.067 53.9 108C47.9667 104.867 43.3 100.533 39.9 95C36.5667 89.4 34.9 83.0667 34.9 76C34.9 68.9333 36.5667 62.6333 39.9 57.1C43.3 51.5 47.9667 47.1667 53.9 44.1C59.8333 40.9667 66.5 39.4 73.9 39.4C80.7 39.4 86.7667 40.6 92.1 43C97.4333 45.4 101.833 48.8667 105.3 53.4L90.4 66.7C86.0667 61.2333 80.9667 58.5 75.1 58.5C70.1667 58.5 66.2 60.1 63.2 63.3C60.2 66.4333 58.7 70.6667 58.7 76C58.7 81.3333 60.2 85.6 63.2 88.8C66.2 91.9333 70.1667 93.5 75.1 93.5C80.9667 93.5 86.0667 90.7667 90.4 85.3L105.3 98.6C101.833 103.133 97.4333 106.6 92.1 109C86.7667 111.4 80.7 112.6 73.9 112.6ZM122.591 112C118.791 112 115.624 110.8 113.091 108.4C110.624 105.933 109.391 102.8 109.391 99C109.391 95.2 110.624 92.1333 113.091 89.8C115.624 87.4 118.791 86.2 122.591 86.2C126.391 86.2 129.524 87.4 131.991 89.8C134.524 92.1333 135.791 95.2 135.791 99C135.791 102.8 134.524 105.933 131.991 108.4C129.524 110.8 126.391 112 122.591 112Z" fill="black"/>
</svg>
